<svg width="449" height="64" viewBox="0 0 449 64" fill="none" xmlns="http://www.w3.org/2000/svg">
<path fill-rule="evenodd" clip-rule="evenodd" d="M21.0673 29.5486V37.1458L10.2929 41.2332L21.0673 45.3469V52.9528L0.0437466 45.1455H-1.52588e-05V37.3383H0.0437466L21.0673 29.5486Z" fill="#7BA7FE"/>
<path fill-rule="evenodd" clip-rule="evenodd" d="M142.815 52.9527V45.3555L153.572 41.2681L142.815 37.1807V29.5835L163.803 37.3907H163.847V45.198H163.803L142.815 52.9702V52.9527Z" fill="#7BA7FE"/>
<path fill-rule="evenodd" clip-rule="evenodd" d="M133.791 18.8004L121.433 58.423H128.759L141.108 18.8004H133.791Z" fill="#7BA7FE"/>
<path fill-rule="evenodd" clip-rule="evenodd" d="M58.9393 36.8833C59.0706 33.7849 57.9677 30.7652 55.8846 28.4721H55.9021C53.8103 26.284 50.8695 25.0936 47.8498 25.2249C44.6202 25.0761 41.4518 26.284 39.1323 28.5509V26.0477H31.8152V53.7581H39.1323V41.4871C39.1323 35.124 41.4255 31.9381 46.0118 31.9381C47.5698 31.8768 49.0664 32.5245 50.0817 33.7061C51.1495 35.0365 51.6922 36.7257 51.6047 38.4324V53.7581H58.9218V36.8745L58.9393 36.8833Z" fill="white"/>
<path d="M74.0111 14.1267H66.694V53.7493H74.0111V14.1267Z" fill="white"/>
<path fill-rule="evenodd" clip-rule="evenodd" d="M106.956 53.7492H113.056L123.332 25.9951H115.507L109.73 42.6511L103.787 25.9951H98.0718L92.1376 42.5985L86.3522 25.9951H78.5275L88.8029 53.7492H94.9122L100.969 37.4345L106.956 53.7492Z" fill="white"/>
<path d="M257.747 36.0603C257.747 36.0603 257.747 35.999 257.747 35.964C257.528 31.614 256.232 27.8417 253.79 24.6295C253.747 24.5332 253.668 24.4632 253.598 24.367C253.09 23.693 252.513 23.0453 251.891 22.4152C247.944 18.3978 243.016 16.3759 236.977 16.3759C230.938 16.3759 226.027 18.3978 222.063 22.4152C218.115 26.3888 216.172 31.369 216.172 37.3994C216.172 40.2703 216.618 42.9223 217.529 45.3292C215.997 46.6596 214.658 47.7624 213.599 48.4889C209.301 51.7535 204.715 53.3465 199.927 53.3465C195.56 53.3465 191.945 51.8236 189.039 48.7689C186.195 45.7143 184.742 41.8982 184.742 37.3907C184.742 32.8831 186.195 29.0671 189.039 26.0124C191.954 22.9578 195.56 21.4349 199.927 21.4349C204.715 21.4349 209.293 23.0278 213.599 26.2925L215.472 21.6449C210.684 18.1089 205.485 16.3671 199.927 16.3671C193.888 16.3671 188.969 18.3802 185.013 22.4064C181.127 26.3625 179.184 31.3515 179.184 37.3907C179.184 43.4299 181.127 48.4189 185.013 52.445C188.969 56.4011 193.897 58.4142 199.927 58.4142C205.477 58.4142 210.684 56.6812 215.472 53.1452C226.789 44.8828 239.454 31.0188 247.025 31.0188C248.565 31.0188 252.25 32.1304 252.25 37.3907C252.25 41.9245 250.78 45.7231 247.874 48.7777C244.959 51.8323 241.353 53.3728 236.977 53.3728C232.933 53.3728 229.493 52.0511 226.701 49.4779C225.502 50.7995 224.268 52.1037 223.069 53.3728C226.85 56.7425 231.445 58.423 236.977 58.423C243.016 58.423 247.944 56.4274 251.891 52.4538C255.865 48.4364 257.808 43.4299 257.808 37.3907C257.808 37.1544 257.808 36.9093 257.781 36.6905C257.781 36.4717 257.755 36.2616 257.747 36.0428V36.0603ZM245.782 26.1875C239.375 26.1875 229.66 34.5636 222.124 41.2593C221.844 40.0427 221.721 38.7561 221.721 37.3994C221.721 32.8306 223.192 29.0058 226.027 26.0212C228.942 22.9666 232.618 21.4524 236.977 21.4524C239.699 21.4524 242.123 22.03 244.268 23.2116C245.563 23.9293 246.771 24.8746 247.874 26.0299C247.9 26.0562 247.926 26.1 247.944 26.1262C248.014 26.1962 248.075 26.275 248.145 26.3538C247.384 26.2488 246.587 26.1962 245.782 26.1962V26.1875Z" fill="url(#paint0_linear_5109_161)"/>
<path d="M283.82 16.516C276.258 16.516 270.919 19.9119 267.654 26.6426V18.1089H262.105V56.6812H267.654V38.9224C267.654 34.1348 269.037 30.1086 271.751 26.7126C274.525 23.3079 278.131 21.6449 282.577 21.6449C291.111 21.6449 295.207 26.7739 295.207 35.1763V56.6812H300.756V34.4761C300.756 23.3779 294.647 16.5072 283.829 16.5072L283.82 16.516Z" fill="url(#paint1_linear_5109_161)"/>
<path d="M327.959 16.516C320.397 16.516 315.058 19.9119 311.793 26.6426V18.1089H306.244V56.6812H311.793V38.9224C311.793 34.1348 313.176 30.1086 315.889 26.7126C318.664 23.3079 322.27 21.6449 326.716 21.6449C335.25 21.6449 339.346 26.7739 339.346 35.1763V56.6812H344.895V34.4761C344.895 23.3779 338.786 16.5072 327.968 16.5072L327.959 16.516Z" fill="url(#paint2_linear_5109_161)"/>
<path d="M386.934 27.3341C386.934 24.7696 385.271 22.3364 381.936 19.9819C378.601 17.5487 374.584 16.3759 369.936 16.3759C363.897 16.3759 358.978 18.389 355.022 22.4152C351.136 26.3713 349.193 31.3602 349.193 37.3994C349.193 43.4387 351.136 48.4276 355.022 52.4538C358.978 56.4099 363.906 58.423 369.936 58.423C375.485 58.423 380.693 56.69 385.481 53.154L383.608 48.4363C379.231 51.701 374.724 53.364 369.936 53.364C365.429 53.364 361.683 51.7623 358.768 48.5064L382.146 33.242C385.472 31.0189 386.934 29.566 386.934 27.3428V27.3341ZM379.301 29.0758L356.063 44.2002C355.162 42.047 354.742 39.8326 354.742 37.3994C354.742 32.8919 356.195 29.0758 359.039 26.0212C361.954 22.9666 365.56 21.4436 369.927 21.4436C372.562 21.4436 375.056 22.0651 377.49 23.2467C379.923 24.4282 381.096 25.6011 381.096 26.7827C381.096 27.4741 380.474 28.2356 379.293 29.0758H379.301Z" fill="url(#paint3_linear_5109_161)"/>
<path d="M409.427 21.4436C414.215 21.4436 418.793 23.0366 423.099 26.3013L424.972 21.6537C420.184 18.1177 414.985 16.3759 409.427 16.3759C403.388 16.3759 398.469 18.389 394.513 22.4152C390.627 26.3713 388.684 31.3602 388.684 37.3994C388.684 43.4387 390.627 48.4276 394.513 52.4538C398.469 56.4099 403.397 58.423 409.427 58.423C414.977 58.423 420.184 56.69 424.972 53.154L423.099 48.5064C418.801 51.7711 414.215 53.364 409.427 53.364C405.06 53.364 401.445 51.8411 398.539 48.7865C395.695 45.7318 394.242 41.9157 394.242 37.4082C394.242 32.9007 395.695 29.0846 398.539 26.0299C401.454 22.9753 405.06 21.4524 409.427 21.4524V21.4436Z" fill="url(#paint4_linear_5109_161)"/>
<path d="M434.827 18.1089V0L429.269 3.61474V56.69H434.827V23.1066H448.35V18.1089H434.827Z" fill="url(#paint5_linear_5109_161)"/>
<defs>
<linearGradient id="paint0_linear_5109_161" x1="179.184" y1="29.2115" x2="448.35" y2="29.2115" gradientUnits="userSpaceOnUse">
<stop stop-color="#7BA7FE"/>
<stop offset="0.5" stop-color="#B2A7FF"/>
<stop offset="1" stop-color="#EAE6FF"/>
</linearGradient>
<linearGradient id="paint1_linear_5109_161" x1="179.184" y1="29.2115" x2="448.35" y2="29.2115" gradientUnits="userSpaceOnUse">
<stop stop-color="#7BA7FE"/>
<stop offset="0.5" stop-color="#B2A7FF"/>
<stop offset="1" stop-color="#EAE6FF"/>
</linearGradient>
<linearGradient id="paint2_linear_5109_161" x1="179.184" y1="29.2115" x2="448.35" y2="29.2115" gradientUnits="userSpaceOnUse">
<stop stop-color="#7BA7FE"/>
<stop offset="0.5" stop-color="#B2A7FF"/>
<stop offset="1" stop-color="#EAE6FF"/>
</linearGradient>
<linearGradient id="paint3_linear_5109_161" x1="179.184" y1="29.2115" x2="448.35" y2="29.2115" gradientUnits="userSpaceOnUse">
<stop stop-color="#7BA7FE"/>
<stop offset="0.5" stop-color="#B2A7FF"/>
<stop offset="1" stop-color="#EAE6FF"/>
</linearGradient>
<linearGradient id="paint4_linear_5109_161" x1="179.184" y1="29.2115" x2="448.35" y2="29.2115" gradientUnits="userSpaceOnUse">
<stop stop-color="#7BA7FE"/>
<stop offset="0.5" stop-color="#B2A7FF"/>
<stop offset="1" stop-color="#EAE6FF"/>
</linearGradient>
<linearGradient id="paint5_linear_5109_161" x1="179.184" y1="29.2115" x2="448.35" y2="29.2115" gradientUnits="userSpaceOnUse">
<stop stop-color="#7BA7FE"/>
<stop offset="0.5" stop-color="#B2A7FF"/>
<stop offset="1" stop-color="#EAE6FF"/>
</linearGradient>
</defs>
</svg>
